<svg width="32" height="33" viewBox="0 0 32 33" fill="none" xmlns="http://www.w3.org/2000/svg">
<path d="M16 0.890625C7.1632 0.890625 0 8.05382 0 16.8906C0 25.7274 7.1632 32.8906 16 32.8906C24.8368 32.8906 32 25.7274 32 16.8906C32 8.05382 24.8368 0.890625 16 0.890625ZM19.056 26.321C18.5664 26.4154 18.392 26.1146 18.392 25.8554C18.392 25.537 18.4048 24.4938 18.4048 23.1978C18.4048 22.2938 18.096 21.7034 17.7504 21.4042C19.8992 21.1642 22.1568 20.345 22.1568 16.6234C22.1568 15.5658 21.784 14.7002 21.1648 14.0234C21.264 13.7786 21.5952 12.793 21.0688 11.4602C21.0688 11.4602 20.2608 11.1994 18.4176 12.4538C17.6464 12.2394 16.8208 12.1322 16.0016 12.1274C15.1808 12.1322 14.3552 12.2394 13.5856 12.4538C11.7424 11.201 10.9328 11.4602 10.9328 11.4602C10.408 12.7946 10.7392 13.7786 10.8384 14.0234C10.2208 14.7002 9.8448 15.5658 9.8448 16.6234C9.8448 20.3354 12.0976 21.1658 14.24 21.4106C13.9648 21.6522 13.7152 22.0794 13.6272 22.705C13.0768 22.953 11.68 23.3802 10.8192 21.9002C10.8192 21.9002 10.3104 20.9706 9.3424 20.9018C9.3424 20.9018 8.4 20.889 9.2768 21.4906C9.2768 21.4906 9.9088 21.7882 10.3472 22.9082C10.3472 22.9082 10.9136 24.793 13.5984 24.2074C13.6032 25.0154 13.6112 25.625 13.6112 25.8554C13.6112 26.1114 13.4352 26.4106 12.952 26.3226C9.1168 25.041 6.352 21.4106 6.352 17.1306C6.352 11.7786 10.672 7.44262 16.0016 7.44262C21.3312 7.44262 25.6512 11.7802 25.6512 17.1306C25.6512 21.409 22.8896 25.0378 19.0576 26.321H19.056Z" fill="black"/>
</svg>
