<svg width="32" height="33" viewBox="0 0 32 33" fill="none" xmlns="http://www.w3.org/2000/svg">
<path d="M17.2075 15.3249V15.2754C17.1972 15.2915 17.1862 15.3088 17.1752 15.3249H17.2075Z" fill="black"/>
<path d="M29.6348 0.890625H2.36387C1.05795 0.890625 0 1.91811 0 3.183V30.5989C0 31.8644 1.0586 32.8906 2.36387 32.8906H29.6348C30.9421 32.8906 32 31.8631 32 30.5989V3.183C32.0006 1.91682 30.9414 0.890625 29.6348 0.890625ZM9.69958 27.6792H4.8663V13.2294H9.70023L9.69958 27.6792ZM7.28326 11.2555H7.25089C5.62965 11.2555 4.58077 10.1451 4.58077 8.75921C4.58077 7.34184 5.66203 6.26288 7.31499 6.26288C8.96925 6.26288 9.98576 7.34184 10.0181 8.75921C10.0181 10.1457 8.96795 11.2555 7.28326 11.2555ZM27.1285 27.6792H22.2952V19.947C22.2952 18.0053 21.596 16.6799 19.8472 16.6799C18.5121 16.6799 17.7171 17.5742 17.3668 18.437C17.2392 18.7452 17.2082 19.1756 17.2082 19.608V27.6786H12.3749C12.3749 27.6786 12.4383 14.5831 12.3749 13.2282H17.2082V15.2741C17.8504 14.2897 18.999 12.8878 21.5649 12.8878C24.7446 12.8878 27.1298 14.9537 27.1298 19.3918L27.1285 27.6792Z" fill="black"/>
</svg>
