<svg width="32" height="33" viewBox="0 0 32 33" fill="none" xmlns="http://www.w3.org/2000/svg">
<path fill-rule="evenodd" clip-rule="evenodd" d="M27.497 3.79972H4.50295L15.3032 14.3734C15.7139 14.7756 16.2859 14.7756 16.6968 14.3734L27.497 3.79972ZM2.28571 5.29919V29.9815H29.7143V5.29913L18.0904 16.6791C16.8579 17.8857 15.1419 17.8857 13.9095 16.6791L2.28571 5.29919ZM0 3.79972C0 2.19307 1.02335 0.890625 2.28571 0.890625H29.7143C30.9767 0.890625 32 2.19307 32 3.79972V29.9815C32 31.5882 30.9767 32.8906 29.7143 32.8906H2.28571C1.02335 32.8906 0 31.5882 0 29.9815V3.79972Z" fill="black"/>
</svg>
