<svg width="32" height="33" viewBox="0 0 32 33" fill="none" xmlns="http://www.w3.org/2000/svg">
<path d="M4 0.890625C1.784 0.890625 0 2.67463 0 4.89062V28.8906C0 31.1066 1.784 32.8906 4 32.8906H28C30.216 32.8906 32 31.1066 32 28.8906V4.89062C32 2.67463 30.216 0.890625 28 0.890625H4ZM13.1773 9.22396C14.0173 9.22396 14.5173 9.62396 14.6773 10.424L16.628 21.4946C17.248 20.6746 17.756 19.984 18.156 19.424C18.776 18.544 19.3467 17.5333 19.8667 16.3933C20.4067 15.2533 20.6773 14.2333 20.6773 13.3333C20.6773 12.7933 20.5267 12.364 20.2267 12.044C19.9467 11.704 19.416 11.2746 18.636 10.7546C19.436 9.73462 20.436 9.22396 21.636 9.22396C22.276 9.22396 22.8067 9.41463 23.2267 9.79463C23.6667 10.1746 23.8853 10.7333 23.8853 11.4746C23.8853 12.7146 23.3653 14.2653 22.3253 16.1253C21.3053 17.9653 19.3373 20.7346 16.4173 24.4346L13.448 24.6426L11.1667 11.8053H8.16667V10.544C8.96667 10.284 9.90667 10.0026 10.9867 9.70396C12.0667 9.38396 12.7973 9.22396 13.1773 9.22396Z" fill="black"/>
</svg>
